<svg class="size-20 xl:size-12" xmlns="http://www.w3.org/2000/svg" width="40" height="40" fill="none" viewBox="0 0 40 40"><circle cx="20" cy="20" r="19.643" stroke="#E6E6E6" stroke-width="0.714"></circle><path fill="#34CAA5" d="M24.25 30.5a1.75 1.75 0 100-3.5 1.75 1.75 0 000 3.5zM16.25 30.5a1.75 1.75 0 100-3.5 1.75 1.75 0 000 3.5z"></path><path fill="#34CAA5" d="M12.84 11.94l-.2 2.45c-.04.47.33.86.8.86h15.31c.42 0 .77-.32.8-.74.13-1.77-1.22-3.21-2.99-3.21H14.29c-.1-.44-.3-.86-.61-1.21a2.62 2.62 0 00-1.91-.84H10c-.41 0-.75.34-.75.75s.34.75.75.75h1.74c.31 0 .6.13.81.35.21.23.31.53.29.84z" opacity="0.4"></path><path fill="#34CAA5" d="M28.51 16.75H13.17c-.42 0-.76.32-.8.73l-.36 4.35c-.14 1.7 1.2 3.17 2.91 3.17h11.12c1.5 0 2.82-1.23 2.93-2.73l.33-4.67a.782.782 0 00-.79-.85z"></path></svg>