<?xml version="1.0" standalone="no"?>
<!DOCTYPE svg PUBLIC "-//W3C//DTD SVG 20010904//EN"
 "http://www.w3.org/TR/2001/REC-SVG-20010904/DTD/svg10.dtd">
<svg version="1.0" xmlns="http://www.w3.org/2000/svg"
 width="300.000000pt" height="300.000000pt" viewBox="0 0 300.000000 300.000000"
 preserveAspectRatio="xMidYMid meet">
<metadata>
Created by potrace 1.10, written by Peter Selinger 2001-2011
</metadata>
<g transform="translate(0.000000,300.000000) scale(0.100000,-0.100000)"
fill="#000000" stroke="none">
<path d="M1398 2570 c-85 -8 -195 -33 -266 -60 -33 -13 -48 -24 -50 -39 -4
-27 17 -27 94 -1 205 71 474 65 685 -14 143 -54 240 -117 359 -236 203 -203
300 -435 300 -720 0 -194 -46 -360 -148 -534 -65 -112 -228 -274 -341 -340
-339 -198 -741 -196 -1071 6 -113 69 -267 224 -334 336 -195 328 -195 736 0
1064 57 95 209 256 297 313 57 38 70 60 41 72 -41 15 -264 -183 -351 -312
-126 -187 -185 -380 -184 -605 0 -299 110 -559 324 -767 211 -205 452 -303
747 -303 302 0 558 108 767 323 93 96 149 176 203 290 250 526 30 1157 -495
1419 -175 88 -383 127 -577 108z"/>
<path d="M1337 2470 c-265 -48 -505 -204 -653 -426 -62 -94 -94 -163 -131
-283 -25 -79 -27 -100 -27 -261 0 -161 2 -182 27 -261 54 -176 134 -313 252
-431 124 -123 256 -201 430 -254 83 -26 104 -28 260 -28 136 -1 183 3 235 17
122 35 222 79 311 139 208 139 346 334 417 591 13 48 17 101 16 232 0 156 -2
178 -28 260 -15 50 -40 118 -56 152 -37 81 -107 183 -125 183 -28 0 -26 -22
10 -76 183 -275 210 -616 75 -911 -96 -207 -241 -355 -444 -452 -169 -81 -333
-111 -498 -91 -134 16 -199 35 -323 96 -194 95 -331 234 -424 428 -81 169
-111 333 -91 499 16 133 35 198 96 322 95 194 234 331 428 424 117 56 184 76
314 91 101 13 227 2 337 -26 95 -25 256 -108 339 -174 81 -64 91 -68 100 -45
7 19 -39 63 -140 130 -94 64 -164 96 -283 132 -72 21 -110 26 -231 29 -80 1
-167 -1 -193 -6z"/>
<path d="M1337 2384 c-365 -66 -658 -361 -722 -729 -68 -394 130 -783 488
-960 142 -70 224 -88 397 -88 173 0 255 18 397 88 232 114 410 332 473 579 25
99 26 126 2 126 -14 0 -22 -19 -39 -92 -75 -314 -313 -556 -628 -639 -112 -30
-298 -30 -410 0 -607 160 -848 869 -465 1363 174 223 481 352 759 319 407 -50
711 -352 761 -758 6 -48 13 -89 15 -91 2 -3 12 -2 21 2 14 5 16 16 10 77 -23
228 -140 458 -306 597 -215 181 -484 255 -753 206z"/>
<path d="M1387 2083 c-3 -5 -55 -151 -117 -326 -71 -201 -109 -322 -103 -328
6 -6 55 1 133 21 68 16 126 30 130 30 4 0 -51 -115 -122 -256 -121 -238 -140
-291 -105 -282 8 2 70 66 138 144 68 77 209 236 313 353 141 160 185 216 177
224 -7 7 -65 21 -130 32 l-119 20 114 178 c63 98 112 183 109 188 -7 11 -412
13 -418 2z m349 -30 c14 -5 0 -39 -42 -98 -37 -52 -134 -219 -134 -231 0 -24
40 -44 115 -59 90 -17 105 -26 84 -52 -33 -40 -233 -269 -243 -278 -6 -5 -57
-63 -114 -127 -57 -65 -107 -118 -112 -118 -10 0 10 43 108 237 34 68 62 129
62 138 0 8 -10 21 -22 29 -20 13 -34 12 -117 -5 -52 -11 -98 -16 -103 -11 -5
5 8 53 27 108 20 54 49 135 65 179 16 44 45 125 65 180 19 54 41 103 48 107
13 9 291 10 313 1z"/>
</g>
</svg>
