<svg class="size-20 xl:size-12" xmlns="http://www.w3.org/2000/svg" width="40" height="40" fill="none" viewBox="0 0 40 40"><circle cx="20" cy="20" r="19.643" stroke="#E6E6E6" stroke-width="0.714"></circle><path fill="#34CAA5" d="M17.99 25.98a7.99 7.99 0 100-15.98 7.99 7.99 0 000 15.98z" opacity="0.4"></path><path fill="#34CAA5" d="M29.97 23.99c0 3.3-2.68 5.98-5.98 5.98a5.97 5.97 0 01-4.91-2.57 9.458 9.458 0 008.32-8.32 5.97 5.97 0 012.57 4.91zM19.45 17.71l-2.4-.84c-.24-.08-.29-.1-.29-.45 0-.26.18-.47.41-.47h1.5c.32 0 .58.29.58.65 0 .41.34.75.75.75s.75-.34.75-.75c0-1.15-.89-2.09-2-2.14v-.05a.749.749 0 10-1.5 0v.05h-.09c-1.05 0-1.91.88-1.91 1.97 0 .95.42 1.56 1.29 1.86l2.41.84c.24.08.29.1.29.45 0 .26-.18.47-.41.47h-1.5c-.32 0-.58-.29-.58-.65 0-.41-.34-.75-.75-.75s-.75.34-.75.75c0 1.15.89 2.09 2 2.14v.06c0 .41.34.75.75.75s.75-.34.75-.75v-.05h.09c1.05 0 1.91-.88 1.91-1.97 0-.95-.43-1.56-1.3-1.87z"></path></svg>